<?xml version="1.0" standalone="no"?>
<!DOCTYPE svg PUBLIC "-//W3C//DTD SVG 20010904//EN"
 "http://www.w3.org/TR/2001/REC-SVG-20010904/DTD/svg10.dtd">
<svg version="1.0" xmlns="http://www.w3.org/2000/svg"
 width="784.000000pt" height="1280.000000pt" viewBox="0 0 784.000000 1280.000000"
 preserveAspectRatio="xMidYMid meet">
<metadata>
Created by potrace 1.15, written by Peter Selinger 2001-2017
</metadata>
<g transform="translate(0.000000,1280.000000) scale(0.100000,-0.100000)"
fill="#673ab7" stroke="none">
<path d="M3621 12695 c-267 -691 -346 -1454 -235 -2282 13 -101 13 -116 -1
-142 -21 -41 -19 -87 5 -111 34 -34 64 -26 104 30 38 53 71 69 106 50 39 -21
50 -82 29 -164 l-11 -43 -217 -6 c-699 -21 -1247 -143 -1730 -383 -526 -261
-906 -636 -1161 -1143 -274 -548 -429 -1234 -492 -2181 -17 -258 -17 -1106 0
-1345 62 -859 201 -1535 422 -2050 145 -339 374 -672 635 -926 427 -415 517
-495 720 -643 66 -48 121 -89 122 -89 0 -1 -18 -3 -42 -4 -56 -2 -331 -58
-420 -85 -213 -64 -295 -137 -281 -252 12 -101 99 -163 311 -221 612 -165
2016 -265 3303 -235 963 22 1727 89 2239 196 315 65 444 129 473 234 12 43 12
47 0 90 -27 95 -129 152 -380 214 -107 26 -369 74 -427 78 -32 2 -32 3 91 128
210 214 344 402 484 678 303 598 468 1323 534 2347 16 254 16 1023 0 1240 -69
918 -250 1712 -508 2226 -145 290 -288 489 -524 733 -331 341 -719 633 -1185
891 -146 81 -471 238 -585 283 -304 120 -703 195 -1145 215 l-50 2 3 100 c1
55 -1 132 -6 170 -10 78 -8 95 6 44 9 -33 10 -33 15 -9 7 30 43 504 57 745 52
930 -13 1529 -183 1693 l-35 34 -41 -107z m-37 -2095 c7 0 34 -14 61 -31 l48
-31 -74 -35 c-50 -25 -94 -56 -136 -99 -35 -34 -63 -61 -63 -59 0 15 56 177
71 207 20 40 46 60 67 53 8 -3 19 -5 26 -5z m593 -2805 c111 -279 179 -675
225 -1310 18 -248 18 -1513 0 -1755 -27 -371 -56 -597 -103 -815 -129 -590
-386 -935 -779 -1044 l-71 -20 -20 46 c-167 390 -259 1163 -259 2183 0 1102
96 1854 286 2257 76 160 193 308 314 398 94 70 292 149 355 142 15 -1 28 -22
52 -82z"/>
</g>
</svg>
