<?xml version="1.0" standalone="no"?>
<!DOCTYPE svg PUBLIC "-//W3C//DTD SVG 20010904//EN"
 "http://www.w3.org/TR/2001/REC-SVG-20010904/DTD/svg10.dtd">
<svg version="1.0" xmlns="http://www.w3.org/2000/svg"
 width="910.000000pt" height="1280.000000pt" viewBox="0 0 910.000000 1280.000000"
 preserveAspectRatio="xMidYMid meet">
<metadata>
Created by potrace 1.15, written by Peter Selinger 2001-2017
</metadata>
<g transform="translate(0.000000,1280.000000) scale(0.100000,-0.100000)"
fill="#673ab7" stroke="none">
<path d="M6021 12658 c-124 -336 -212 -707 -258 -1093 -14 -118 -18 -228 -18
-510 0 -354 3 -409 42 -709 15 -122 15 -131 -2 -178 -10 -27 -14 -59 -11 -73
l6 -25 -639 0 -639 0 -2251 -2677 -2251 -2676 0 -1018 0 -1018 607 -435 607
-436 1643 0 1643 0 0 -372 0 -373 -1758 0 c-1632 0 -1760 -1 -1794 -17 -78
-35 -89 -26 532 -432 91 -59 251 -164 355 -232 203 -134 311 -191 415 -220 62
-18 189 -19 3166 -22 1706 -1 3118 1 3139 6 21 4 43 15 49 24 17 28 -30 67
-259 216 -341 221 -449 293 -462 310 -10 12 -13 140 -13 564 l0 548 560 0 560
0 0 958 0 959 -207 165 c-115 91 -365 290 -558 443 l-350 278 -5 2295 -5 2295
-230 165 c-126 91 -398 286 -603 434 l-374 268 -212 0 -213 0 -10 103 c-5 56
-8 104 -7 106 2 2 7 -12 12 -30 6 -22 11 -29 15 -19 5 14 33 372 59 750 17
247 17 1014 0 1160 -36 318 -87 499 -170 608 -51 67 -53 65 -111 -90z m2
-2153 c18 -9 43 -24 57 -34 l24 -19 -69 -33 c-50 -23 -91 -53 -144 -106 -40
-40 -71 -67 -69 -60 3 6 19 55 37 107 42 129 62 160 102 160 17 0 45 -7 62
-15z m23 -401 c4 -14 4 -27 1 -30 -2 -3 -40 -4 -82 -2 l-78 3 28 33 c16 19 38
37 49 42 29 11 74 -14 82 -46z m-1549 -5501 c-2 -2 -97 -2 -210 -1 l-206 3
207 244 207 244 3 -243 c1 -134 1 -245 -1 -247z"/>
</g>
</svg>
